# AST/ASF file generated using VICON BodyLanguage
# -----------------------------------------------
:version 1.10
:name VICON
:units
  mass 1.0
  length 0.45
  angle deg
:documentation
   .ast/.asf automatically generated from VICON data using
   VICON BodyBuilder and BodyLanguage model FoxedUp or BRILLIANT.MOD
:root
   order TX TY TZ RX RY RZ
   axis XYZ
   position 0 0 0  
   orientation 0 0 0 
:bonedata
  begin
     id 1 
     name lhipjoint
     direction 0.589753 -0.68606 0.426044 
     length 2.54082 
     axis 0 0 0  XYZ
  end
  begin
     id 2 
     name lfemur
     direction 0.34202 -0.939693 0  
     length 7.04539  
     axis 0 0 20  XYZ
    dof rx ry rz
    limits (-160.0 20.0)
           (-70.0 70.0)
           (-60.0 70.0)
  end
  begin
     id 3 
     name ltibia
     direction 0.34202 -0.939693 0   
     length 7.83772   
     axis 0 0 20   XYZ
    dof rx
    limits (-10.0 170.0)
  end
  begin
     id 4 
     name lfoot
     direction 0.0596604 -0.163915 0.984669   
     length 2.39542   
     axis -90 7.62852e-016 20   XYZ
    dof rx rz
    limits (-45.0 90.0)
           (-70.0 20.0)
  end
  begin
     id 5 
     name ltoes
     direction 1.53514e-011 -4.21954e-011 1   
     length 1.2047   
     axis -90 7.62852e-016 20   XYZ
    dof rx
    limits (-90.0 20.0)
  end
  begin
     id 6 
     name rhipjoint
     direction -0.580585 -0.69168 0.429534   
     length 2.52018  
     axis 0 0 0  XYZ 
  end
  begin
     id 7 
     name rfemur
     direction -0.34202 -0.939693 0   
     length 7.0101   
     axis 0 0 -20   XYZ
    dof rx ry rz
    limits (-160.0 20.0)
           (-70.0 70.0)
           (-70.0 60.0)
  end
  begin
     id 8 
     name rtibia
     direction -0.34202 -0.939693 0   
     length 7.70628   
     axis 0 0 -20   XYZ
    dof rx
    limits (-10.0 170.0)
 end
 begin
     id 9 
     name rfoot
     direction -0.0696237 -0.19129 0.979061   
     length 2.52466  
     axis -90 -7.62852e-016 -20   XYZ
    dof rx rz
    limits (-45.0 90.0)
           (-20.0 70.0)
  end
  begin
     id 10 
     name rtoes
     direction -1.53519e-011 -4.21793e-011 1   
     length 1.266   
     axis -90 -7.62852e-016 -20   XYZ
    dof rx
    limits (-90.0 20.0)
  end
  begin
     id 11 
     name lowerback
     direction 0.00381965 0.995707 -0.0924856   
     length 2.20825   
     axis 0 0 0   XYZ
    dof rx ry rz
    limits (-20.0 45.0)
           (-30.0 30.0)
           (-30.0 30.0)
  end
  begin
     id 12 
     name upperback
     direction -0.0139043 0.999634 -0.0231929   
     length 2.21517   
     axis 0 0 0   XYZ
    dof rx ry rz
    limits (-20.0 45.0)
           (-30.0 30.0)
           (-30.0 30.0)
  end
  begin
     id 13 
     name thorax
     direction -0.0143933 0.999691 0.0202892   
     length 2.22911   
     axis 0 0 0   XYZ
    dof rx ry rz
    limits (-20.0 45.0)
           (-30.0 30.0)
           (-30.0 30.0)
  end
  begin
     id 14 
     name lowerneck
     direction -0.0251153 0.981819 0.188153   
     length 1.61782   
     axis 0 0 0   XYZ
    dof rx ry rz
    limits (-20.0 45.0)
           (-30.0 30.0)
           (-30.0 30.0)
  end
  begin
     id 15 
     name upperneck
     direction 0.0563891 0.969357 -0.239095   
     length 1.64526   
     axis 0 0 0   XYZ
    dof rx ry rz
    limits (-20.0 45.0)
           (-30.0 30.0)
           (-30.0 30.0)
  end
  begin
     id 16
     name head
     direction 0.0208328 0.99459 -0.101773  
     length 1.67436  
     axis 0 0 0   XYZ
    dof rx ry rz
    limits (-20.0 45.0)
           (-30.0 30.0)
           (-30.0 30.0)
  end
  begin
     id 17 
     name lclavicle
     direction 0.917689 0.397224 0.00772059  
     length 3.31102  
     axis 0 0 0   XYZ
    dof ry rz
    limits (-20.0 10.0)
           (0.0 20.0)
  end
  begin
     id 18 
     name lhumerus
     direction 1 -4.4896e-011 2.32308e-027   
     length 5.25537   
     axis 180 -30 -90   XYZ
    dof rx ry rz
    limits (-60.0 90.0)
           (-90.0 90.0)
           (-90.0 90.0)
  end
  begin
     id 19
     name lradius
     direction 1 -4.49005e-011 -2.04271e-027   
     length 3.38855   
     axis 180 -30 -90   XYZ
    dof rx
    limits (-10.0 170.0)
  end
  begin
     id 20
     name lwrist
     direction 1 -4.48892e-011 2.56952e-028   
     length 1.69428   
     axis -5.12785e-016 90 90   XYZ
    dof ry
    limits (-180.0 0.0)
 end
  begin
     id 21 
     name lhand
     direction 1 -4.48966e-011 5.13905e-028   
     length 0.614516   
     axis -3.27915e-016 90 90   XYZ
    dof rx rz
    limits (-90.0 90.0)
           (-45.0 45.0)
  end
  begin
     id 22 
     name lfingers
     direction 1 -4.48979e-011 1.02781e-027   
     length 0.495439   
     axis -6.5583e-016 90 90   XYZ
    dof rx
    limits (0.0 90.0)
  end
  begin
     id 23
     name lthumb
     direction 0.707107 -6.35001e-011 0.707107   
     length 0.711354   
     axis -90 45 2.85299e-015   XYZ
    dof rx rz
    limits (-45.0 45.0)
           (-45.0 45.0)
  end
  begin
     id 24 
     name rclavicle
     direction -0.938556 0.342765 -0.0403177   
     length 3.27019  
     axis 0 0 0   XYZ 
    dof ry rz
    limits (-10.0 20.0)
           (-20.0 0.0)
  end
  begin
     id 25 
     name rhumerus
     direction -1 -4.48966e-011 2.52291e-027  
     length 5.38183   
     axis 180 30 90   XYZ
    dof rx ry rz
    limits (-90.0 60.0)
           (-90.0 90.0)
           (-90.0 90.0)
  end
  begin
     id 26 
     name rradius
     direction -1 -4.4896e-011 1.5797e-027   
     length 3.16988   
     axis 180 30 90   XYZ
    dof rx
    limits (-10.0 170.0)
  end
  begin
     id 27 
     name rwrist
     direction -1 -4.48947e-011 2.56952e-028   
     length 1.58494   
     axis -5.12785e-016 -90 -90   XYZ
    dof ry
    limits (-180.0 0.0)
  end
  begin
     id 28
     name rhand
     direction -1 -4.49098e-011 5.13905e-028   
     length 0.637679   
     axis -3.27915e-016 -90 -90   XYZ
    dof rx rz
    limits (-90.0 90.0)
           (-45.0 45.0)
  end
  begin
     id 29
     name rfingers
     direction -1 -4.49026e-011 1.02781e-027   
     length 0.514113   
     axis -6.5583e-016 -90 -90   XYZ
    dof rx
    limits (0.0 90.0)
  end
  begin
     id 30
     name rthumb
     direction -0.707107 -6.3491e-011 0.707107   
     length 0.738167   
     axis -90 -45 -2.85299e-015   XYZ
    dof rx rz
    limits (-45.0 45.0)
           (-45.0 45.0)
  end
:hierarchy
  begin
    root lhipjoint rhipjoint lowerback
    lhipjoint lfemur
    lfemur ltibia
    ltibia lfoot
    lfoot ltoes
    rhipjoint rfemur
    rfemur rtibia
    rtibia rfoot
    rfoot rtoes
    lowerback upperback
    upperback thorax
    thorax lowerneck lclavicle rclavicle
    lowerneck upperneck
    upperneck head
    lclavicle lhumerus
    lhumerus lradius
    lradius lwrist
    lwrist lhand lthumb
    lhand lfingers
    rclavicle rhumerus
    rhumerus rradius
    rradius rwrist
    rwrist rhand rthumb
    rhand rfingers
  end

#!OML:ASF H:\Swim\Project 1\Capture day 1\Session 1\swimmer.ASF
:FULLY-SPECIFIED
:DEGREES
1173
root 4.21764 11.591 25.0326 99.0987 -5.87714 3.13281
lowerback -0.470419 0.184846 -3.15039
upperback -8.83335 -0.206867 -4.28275
thorax -9.066 -0.0441801 -2.77111
lowerneck -27.6965 -6.55463 -11.6239
upperneck 19.0342 -6.91474 9.81974
head 11.5269 -2.7302 4.32227
rclavicle -4.77083e-015 -7.35503e-015
rhumerus 29.1541 22.5497 -39.1983
rradius 24.6633
rwrist -67.963
rhand -7.4879 -3.73851
rfingers 7.12502
rthumb 18.4015 -32.8881
lclavicle -4.77083e-015 -7.35503e-015
lhumerus 39.9165 -16.3412 54.0349
lradius 22.8648
lwrist 28.3455
lhand -8.87182 13.6104
lfingers 7.12502
lthumb 17.0698 -317.12
rfemur -19.7662 1.51061 19.7343
rtibia 25.4849
rfoot -8.59242 -16.6146
rtoes 6.80155
lfemur -29.6129 -7.64529 -12.1572
ltibia 33.8007
lfoot 5.1541 -1.0861
ltoes -4.80701
1174
root 4.24219 11.5907 25.036 99.1357 -5.87585 2.75601
lowerback -0.371408 0.293831 -3.11363
upperback -8.90178 -0.0504669 -4.11178
thorax -9.19428 0.0398053 -2.62453
lowerneck -27.667 -6.42712 -11.4519
upperneck 18.9649 -6.74496 9.59094
head 11.4571 -2.67097 4.23683
rclavicle -2.14687e-014 3.27995e-015
rhumerus 29.4272 22.7118 -38.839
rradius 24.6008
rwrist -68.0268
rhand -7.54153 -3.70648
rfingers 7.12502
rthumb 18.3499 -32.861
lclavicle -2.14687e-014 3.27995e-015
lhumerus 39.6394 -16.3779 54.1069
lradius 22.9749
lwrist 28.5451
lhand -8.75518 13.675
lfingers 7.12502
lthumb 17.1821 -317.065
rfemur -19.7921 1.44576 19.6754
rtibia 25.5333
rfoot -8.32891 -16.4791
rtoes 6.63014
lfemur -29.8887 -8.04372 -12.0824
ltibia 33.5845
lfoot 4.08868 -0.395654
ltoes -4.93579
1175
root 4.26592 11.5908 25.0385 99.1593 -5.89049 2.38397
lowerback -0.261186 0.39754 -3.11607
upperback -8.96401 0.0971708 -3.93791
thorax -9.32398 0.122665 -2.45286
lowerneck -27.632 -6.2957 -11.2739
upperneck 18.8856 -6.57651 9.37699
head 11.3842 -2.61005 4.1558
rclavicle 1.03368e-014 -2.62396e-014
rhumerus 29.6937 22.8406 -38.5125
rradius 24.5445
rwrist -68.0573
rhand -7.61922 -3.67266
rfingers 7.12502
rthumb 18.2752 -32.8342
lclavicle 1.03368e-014 -2.62396e-014
lhumerus 39.3778 -16.4126 54.1704
lradius 23.0641
lwrist 28.7323
lhand -8.63183 13.7393
lfingers 7.12502
lthumb 17.3008 -317.011
rfemur -19.79 1.38922 19.5936
rtibia 25.6012
rfoot -8.16015 -16.3421
rtoes 6.26305
lfemur -30.0994 -8.43629 -12.0298
ltibia 33.3842
lfoot 2.80198 0.494138
ltoes -5.31082
1176
root 4.2889 11.5912 25.04 99.164 -5.92262 2.02379
lowerback -0.1372 0.496326 -3.15438
upperback -9.01643 0.236366 -3.76321
thorax -9.45283 0.204265 -2.26017
lowerneck -27.5979 -6.16895 -11.105
upperneck 18.801 -6.41668 9.18533
head 11.3127 -2.55074 4.08317
rclavicle -2.14687e-014 1.35174e-014
rhumerus 29.9477 22.9283 -38.2193
rradius 24.4953
rwrist -68.0505
rhand -7.71278 -3.64029
rfingers 7.12502
rthumb 18.1852 -32.8102
lclavicle -2.14687e-014 1.35174e-014
lhumerus 39.1326 -16.4487 54.231
lradius 23.1367
lwrist 28.9025
lhand -8.49987 13.8084
lfingers 7.12502
lthumb 17.4278 -316.953
rfemur -19.7561 1.33747 19.4892
rtibia 25.6977
rfoot -8.0902 -16.2084
rtoes 5.77539
lfemur -30.2334 -8.77839 -12.0162
ltibia 33.1964
lfoot 1.43295 1.54386
ltoes -5.84824
1177
root 4.31117 11.5916 25.0407 99.1524 -5.97741 1.67107
lowerback -0.00977649 0.593534 -3.23229
upperback -9.05879 0.371668 -3.59169
thorax -9.57464 0.28708 -2.04881
lowerneck -27.5643 -6.05299 -10.9579
upperneck 18.715 -6.27163 9.02564
head 11.2456 -2.49554 4.02359
rclavicle -5.56597e-015 2.42517e-014
rhumerus 30.1726 22.9688 -37.9672
rradius 24.4598
rwrist -68.0076
rhand -7.81624 -3.6042
rfingers 7.12502
rthumb 18.0856 -32.7834
lclavicle -5.56597e-015 2.42517e-014
lhumerus 38.9013 -16.5044 54.277
lradius 23.2069
lwrist 29.0792
lhand -8.37537 13.875
lfingers 7.12502
lthumb 17.5476 -316.897
rfemur -19.6958 1.25559 19.3608
rtibia 25.8276
rfoot -8.04212 -16.0645
rtoes 5.26613
lfemur -30.2859 -9.04443 -12.0546
ltibia 33.0137
lfoot 0.105444 2.71475
ltoes -6.47535
1178
root 4.33308 11.5918 25.0407 99.1257 -6.04559 1.33037
lowerback 0.121679 0.688083 -3.32925
upperback -9.09029 0.50211 -3.42672
thorax -9.68871 0.368796 -1.83376
lowerneck -27.5382 -5.9502 -10.8312
upperneck 18.6277 -6.14653 8.90618
head 11.1846 -2.44549 3.97893
rclavicle 8.74653e-015 1.50082e-014
rhumerus 30.3701 22.9684 -37.7516
rradius 24.442
rwrist -67.9476
rhand -7.92299 -3.56998
rfingers 7.12502
rthumb 17.9829 -32.7586
lclavicle 8.74653e-015 1.50082e-014
lhumerus 38.6828 -16.578 54.305
lradius 23.2831
lwrist 29.2667
lhand -8.25811 13.9521
lfingers 7.12502
lthumb 17.6605 -316.83
rfemur -19.6074 1.12903 19.2195
rtibia 25.988
rfoot -8.01704 -15.9015
rtoes 4.72028
lfemur -30.261 -9.24446 -12.1328
ltibia 32.8327
lfoot -1.04933 3.96248
ltoes -6.87771
1179
root 4.35494 11.592 25.0399 99.0882 -6.12036 0.995363
lowerback 0.250688 0.78672 -3.4483
upperback -9.11077 0.637881 -3.26033
thorax -9.79105 0.455177 -1.60554
lowerneck -27.5197 -5.86587 -10.7241
upperneck 18.5348 -6.04406 8.80921
head 11.1274 -2.40402 3.94169
rclavicle -1.59028e-015 8.94531e-016
rhumerus 30.5485 22.9458 -37.5257
rradius 24.4384
rwrist -67.8996
rhand -8.03359 -3.53041
rfingers 7.12502
rthumb 17.8765 -32.7288
lclavicle -1.59028e-015 8.94531e-016
lhumerus 38.468 -16.6315 54.4175
lradius 23.3365
lwrist 29.3774
lhand -8.16051 14.0108
lfingers 7.12502
lthumb 17.7544 -316.78
rfemur -19.4911 0.961473 19.0703
rtibia 26.1705
rfoot -7.96182 -15.7212
rtoes 4.32355
lfemur -30.1638 -9.38564 -12.2397
ltibia 32.6527
lfoot -1.97216 5.23701
ltoes -6.9879
1180
root 4.37697 11.592 25.0385 99.0477 -6.19554 0.663896
lowerback 0.36452 0.893056 -3.58374
upperback -9.12154 0.784876 -3.09342
thorax -9.87565 0.548652 -1.36857
lowerneck -27.5019 -5.80047 -10.6294
upperneck 18.4326 -5.96637 8.72778
head 11.0709 -2.37264 3.90766
rclavicle 9.54166e-015 -1.26228e-014
rhumerus 30.7122 22.9227 -37.2522
rradius 24.4524
rwrist -67.8977
rhand -8.14184 -3.48906
rfingers 7.12502
rthumb 17.7724 -32.6969
lclavicle 9.54166e-015 -1.26228e-014
lhumerus 38.2642 -16.6765 54.6068
lradius 23.3735
lwrist 29.4288
lhand -8.07685 14.0634
lfingers 7.12502
lthumb 17.8349 -316.734
rfemur -19.3523 0.71673 18.9222
rtibia 26.364
rfoot -7.86202 -15.4985
rtoes 3.88891
lfemur -30.0107 -9.46605 -12.3677
ltibia 32.4779
lfoot -2.60606 6.47621
ltoes -6.71415
1181
root 4.39927 11.5918 25.0371 99.006 -6.25631 0.345951
lowerback 0.47005 0.998007 -3.70285
upperback -9.12881 0.931299 -2.92849
thorax -9.95286 0.640443 -1.14298
lowerneck -27.4872 -5.74628 -10.5489
upperneck 18.3222 -5.90392 8.66963
head 11.0153 -2.34615 3.88181
rclavicle 8.74653e-015 -1.22253e-014
rhumerus 30.8536 22.8986 -36.9797
rradius 24.4848
rwrist -67.8857
rhand -8.24261 -3.45231
rfingers 7.12502
rthumb 17.6754 -32.6689
lclavicle 8.74653e-015 -1.22253e-014
lhumerus 38.0749 -16.7464 54.7687
lradius 23.4201
lwrist 29.5286
lhand -8.01182 14.1153
lfingers 7.12502
lthumb 17.8975 -316.688
rfemur -19.1912 0.398274 18.7911
rtibia 26.5614
rfoot -7.69333 -15.249
rtoes 3.41081
lfemur -29.8171 -9.48198 -12.5017
ltibia 32.3115
lfoot -2.95222 7.62758
ltoes -6.13566
1182
root 4.42214 11.5916 25.0353 98.9637 -6.27857 0.0420291
lowerback 0.572107 1.1026 -3.7825
upperback -9.13931 1.08016 -2.75794
thorax -10.0324 0.730582 -0.9341
lowerneck -27.4627 -5.69741 -10.4531
upperneck 18.201 -5.85083 8.59368
head 10.954 -2.32527 3.84494
rclavicle -3.18055e-015 -1.10325e-014
rhumerus 30.9608 22.8718 -36.7286
rradius 24.5286
rwrist -67.8235
rhand -8.32953 -3.42295
rfingers 7.12502
rthumb 17.5917 -32.6471
lclavicle -3.18055e-015 -1.10325e-014
lhumerus 37.8773 -16.7756 55.0235
lradius 23.4327
lwrist 29.5461
lhand -7.94508 14.1481
lfingers 7.12502
lthumb 17.9617 -316.661
rfemur -19.0093 0.0116824 18.7011
rtibia 26.7589
rfoot -7.43656 -14.9751
rtoes 2.91161
lfemur -29.5891 -9.43778 -12.6146
ltibia 32.1572
lfoot -3.06163 8.6666
ltoes -5.33684
1183
root 4.44531 11.5912 25.0338 98.9241 -6.27674 -0.239578
lowerback 0.66654 1.19869 -3.81853
upperback -9.15173 1.21944 -2.59699
thorax -10.1093 0.811846 -0.759064
lowerneck -27.4409 -5.64815 -10.3416
upperneck 18.0829 -5.80362 8.51839
head 10.8947 -2.30575 3.80482
rclavicle 1.74931e-014 -1.53064e-014
rhumerus 31.0615 22.8726 -36.4731
rradius 24.5809
rwrist -67.755
rhand -8.40193 -3.39802
rfingers 7.12502
rthumb 17.5221 -32.6284
lclavicle 1.74931e-014 -1.53064e-014
lhumerus 37.7011 -16.8469 55.1804
lradius 23.4693
lwrist 29.6649
lhand -7.87984 14.1861
lfingers 7.12502
lthumb 18.0245 -316.629
rfemur -18.8143 -0.443166 18.6371
rtibia 26.9582
rfoot -7.06552 -14.6905
rtoes 2.41464
lfemur -29.3423 -9.34036 -12.7214
ltibia 32.015
lfoot -2.98702 9.57619
ltoes -4.54431
1184
root 4.46891 11.5911 25.0321 98.8783 -6.2498 -0.486913
lowerback 0.774043 1.28157 -3.80502
upperback -9.17047 1.34194 -2.44298
thorax -10.2001 0.880321 -0.61828
lowerneck -27.4206 -5.59819 -10.228
upperneck 17.9806 -5.75809 8.447
head 10.8421 -2.28633 3.76591
rclavicle -1.27222e-014 5.86415e-015
rhumerus 31.1556 22.9077 -36.2195
rradius 24.6363
rwrist -67.671
rhand -8.45401 -3.38424
rfingers 7.12502
rthumb 17.472 -32.6191
lclavicle -1.27222e-014 5.86415e-015
lhumerus 37.5326 -16.9542 55.2496
lradius 23.5302
lwrist 29.8737
lhand -7.80919 14.2344
lfingers 7.12502
lthumb 18.0924 -316.587
rfemur -18.6019 -0.954327 18.5982
rtibia 27.164
rfoot -6.62016 -14.402
rtoes 1.91044
lfemur -29.0767 -9.21963 -12.8174
ltibia 31.8848
lfoot -2.80683 10.3536
ltoes -3.87927
1185
root 4.49276 11.5915 25.0299 98.8245 -6.20814 -0.69526
lowerback 0.894583 1.35011 -3.75396
upperback -9.19152 1.44537 -2.29973
thorax -10.3001 0.935565 -0.508713
lowerneck -27.4128 -5.54747 -10.1109
upperneck 17.9091 -5.71402 8.37833
head 10.8033 -2.26672 3.72777
rclavicle 8.74653e-015 -7.55382e-015
rhumerus 31.2491 22.9688 -35.9633
rradius 24.6895
rwrist -67.5882
rhand -8.48201 -3.37817
rfingers 7.12502
rthumb 17.445 -32.6154
lclavicle 8.74653e-015 -7.55382e-015
lhumerus 37.3762 -17.0964 55.2355
lradius 23.6165
lwrist 30.1546
lhand -7.73842 14.2874
lfingers 7.12502
lthumb 18.1605 -316.54
rfemur -18.3764 -1.50271 18.5706
rtibia 27.3828
rfoot -6.12809 -14.1121
rtoes 1.49411
lfemur -28.7961 -9.11211 -12.9059
ltibia 31.764
lfoot -2.59191 11.0022
ltoes -3.38732
1186
root 4.51668 11.5927 25.0269 98.7517 -6.14799 -0.854932
lowerback 1.04523 1.40245 -3.66132
upperback -9.21231 1.52683 -2.1663
thorax -10.4161 0.975739 -0.431679
lowerneck -27.4222 -5.49957 -10.0107
upperneck 17.8764 -5.67485 8.33855
head 10.7842 -2.24653 3.70299
rclavicle 9.54166e-015 3.27995e-015
rhumerus 31.3472 23.0579 -35.6905
rradius 24.7427
rwrist -67.5395
rhand -8.48247 -3.38568
rfingers 7.12502
rthumb 17.4446 -32.6229
lclavicle 9.54166e-015 3.27995e-015
lhumerus 37.2328 -17.2782 55.1301
lradius 23.7385
lwrist 30.5137
lhand -7.66277 14.3554
lfingers 7.12502
lthumb 18.2333 -316.479
rfemur -18.1307 -2.06245 18.5572
rtibia 27.6202
rfoot -5.65729 -13.8367
rtoes 1.0947
lfemur -28.4975 -9.05014 -12.9768
ltibia 31.6512
lfoot -2.39683 11.5239
ltoes -3.12523
